<svg width="31" height="30" viewBox="0 0 31 30" fill="none" xmlns="http://www.w3.org/2000/svg">
<path fill-rule="evenodd" clip-rule="evenodd" d="M15.0171 0C6.73271 0 0.0170898 6.71563 0.0170898 15C0.0170898 23.2844 6.73271 30 15.0171 30C23.3015 30 30.0171 23.2844 30.0171 15C30.0171 6.71563 23.3015 0 15.0171 0ZM21.0317 10.8399C20.8367 12.8939 19.9917 17.8859 19.5627 20.1869C19.3807 21.1619 19.0167 21.4869 18.6787 21.5259C18.076 21.5778 17.5896 21.2311 17.0468 20.8442C16.9105 20.747 16.7708 20.6474 16.6247 20.5509C16.0494 20.1717 15.5991 19.8649 15.153 19.561C14.7119 19.2605 14.275 18.9628 13.7257 18.6009C12.6122 17.8698 13.0848 17.4209 13.7124 16.8249C13.8102 16.732 13.9118 16.6355 14.0117 16.5339C14.0518 16.4937 14.2246 16.3336 14.4744 16.1021C15.4383 15.2088 17.5481 13.2537 17.5997 13.0369C17.6087 12.9955 17.6075 12.9526 17.5962 12.9118C17.5849 12.871 17.5637 12.8336 17.5347 12.8029C17.4654 12.7452 17.3757 12.7592 17.2927 12.7722C17.2822 12.7738 17.2719 12.7754 17.2617 12.7769C17.1447 12.8029 15.3247 14.0119 11.7757 16.4039C11.2557 16.7549 10.7877 16.9369 10.3717 16.9239C9.90368 16.9109 9.01968 16.6639 8.35668 16.4429C8.27197 16.416 8.18921 16.3903 8.10896 16.3655C7.41328 16.15 6.90606 15.9928 6.95268 15.5849C6.97868 15.3509 7.30368 15.1169 7.91468 14.8699C11.7107 13.2189 14.2327 12.1269 15.4937 11.6069C19.1077 10.0989 19.8487 9.83887 20.3427 9.83887C20.4467 9.83887 20.6937 9.86487 20.8497 9.99487C20.9797 10.0989 21.0187 10.2419 21.0317 10.3459C21.0255 10.3828 21.0281 10.4547 21.0312 10.5395C21.0346 10.6338 21.0385 10.744 21.0317 10.8399Z" fill="white"/>
</svg>
