<svg width="595" height="139" viewBox="0 0 595 139" fill="none" xmlns="http://www.w3.org/2000/svg">
<path fill-rule="evenodd" clip-rule="evenodd" d="M105.148 44.5151H135.869C137.971 44.5151 139.684 46.2154 139.684 48.2977V90.1433C139.684 92.2291 137.971 93.9294 135.869 93.9294H105.148V107.129C105.148 109.214 103.436 110.915 101.334 110.915H94.8306V134.659C94.8306 136.744 93.1182 138.444 91.0167 138.444H48.8561C46.7554 138.444 45.0421 136.744 45.0421 134.659V110.915H38.5395C36.4414 110.915 34.7282 109.214 34.7282 107.129V93.9294H4.00324C1.9017 93.9294 0.189331 92.2291 0.189331 90.1433V48.2977C0.189331 46.2154 1.9017 44.5151 4.00324 44.5151H34.7282V31.3115C34.7282 29.2266 36.4414 27.5263 38.5395 27.5263H45.0421V3.78176C45.0421 1.69948 46.7554 0 48.8561 0H91.0167C93.1182 0 94.8306 1.69948 94.8306 3.78176V27.5263H101.334C103.436 27.5263 105.148 29.2266 105.148 31.3115V44.5151Z" fill="#F1F1F1"/>
<path fill-rule="evenodd" clip-rule="evenodd" d="M48.8562 3.78149H91.0168V48.2974H135.87V90.1431H91.0168V134.659H48.8562V90.1431H4.00342V48.2974H48.8562V3.78149Z" fill="#DF0017"/>
<path fill-rule="evenodd" clip-rule="evenodd" d="M62.7073 56.0526H77.1664V31.3115C77.1664 28.5958 79.3994 26.3796 82.1358 26.3796H101.334C104.074 26.3796 106.303 28.5958 106.303 31.3115V107.13C106.303 109.848 104.074 112.061 101.334 112.061H82.1358C79.3994 112.061 77.1664 109.848 77.1664 107.13V81.2992H62.7073V107.13C62.7073 109.848 60.4743 112.061 57.738 112.061H38.5395C35.8023 112.061 33.5693 109.848 33.5693 107.13V31.3115C33.5693 28.5958 35.8023 26.3796 38.5395 26.3796H57.738C60.4743 26.3796 62.7073 28.5958 62.7073 31.3115V56.0526Z" fill="#F1F1F1"/>
<path fill-rule="evenodd" clip-rule="evenodd" d="M38.5396 31.311V107.129H57.738V76.3668H82.1358V107.129H101.334V31.311H82.1358V60.984H57.738V31.311H38.5396Z" fill="#096BA2"/>
<path fill-rule="evenodd" clip-rule="evenodd" d="M156.191 12.9179V74.7384H171.843V49.6539H191.738V74.7384H207.391V12.9179H191.738V37.1129H171.843V12.9179H156.191ZM246.772 11.7042C237.479 11.7042 229.487 14.7798 223.376 20.8489C217.422 26.7546 214.244 34.6856 214.244 43.8302C214.244 52.9715 217.422 60.8204 223.455 66.8074C229.487 72.7986 237.56 75.952 246.772 75.952C256.068 75.952 264.056 72.7986 270.091 66.8074C276.125 60.8204 279.302 52.9715 279.302 43.8302C279.302 34.6856 276.125 26.7546 270.091 20.8489C263.976 14.7798 256.151 11.7042 246.772 11.7042ZM246.772 62.1161C237.152 62.1161 230.061 54.6726 230.061 43.8302C230.061 32.987 237.069 25.5443 246.772 25.5443C256.474 25.5443 263.406 32.987 263.406 43.8302C263.406 54.6726 256.474 62.1161 246.772 62.1161ZM306.988 63.0877H301.932V47.632H305.683C311.633 47.632 314.815 50.3013 314.815 55.3201C314.815 60.0122 311.881 63.0877 306.988 63.0877ZM305.683 38.5686H301.932V23.8424H304.377C310.902 23.8424 313.918 25.6222 313.918 31.2071C313.918 35.9805 311.063 38.5686 305.683 38.5686ZM287.502 12.9179V74.7384H309.108C322.967 74.7384 330.223 68.3452 330.223 56.6124C330.223 49.5751 326.719 44.7197 320.604 42.8578C325.984 40.2705 328.839 35.5751 328.839 29.506C328.839 19.4744 321.826 12.9179 310.249 12.9179H287.502ZM371.174 11.7042C361.879 11.7042 353.891 14.7798 347.776 20.8489C341.822 26.7546 338.644 34.6856 338.644 43.8302C338.644 52.9715 341.822 60.8204 347.858 66.8074C353.891 72.7986 361.96 75.952 371.174 75.952C380.468 75.952 388.459 72.7986 394.491 66.8074C400.525 60.8204 403.702 52.9715 403.702 43.8302C403.702 34.6856 400.525 26.7546 394.491 20.8489C388.376 14.7798 380.551 11.7042 371.174 11.7042ZM371.174 62.1161C361.552 62.1161 354.461 54.6726 354.461 43.8302C354.461 32.987 361.473 25.5443 371.174 25.5443C380.876 25.5443 387.806 32.987 387.806 43.8302C387.806 54.6726 380.876 62.1161 371.174 62.1161ZM467.992 43.3428V74.7384H482.341V12.9179H463.835L447.774 46.8237L432.527 12.9179H413.284V74.7384H427.634V43.3428C427.634 40.8359 427.226 36.3867 426.329 30.2356C427.878 34.9276 429.754 38.4086 430.895 40.8359L447.691 75.87L464.649 40.8359C466.116 37.8424 467.827 34.4435 469.215 30.2356C468.318 36.3867 467.992 40.8359 467.992 43.3428ZM494.835 12.9179V74.7384H529.729V62.1974H510.491V49.4931H529.729V37.5183H510.491V24.896H529.729V12.9179H494.835ZM580.405 74.9017V86.8765H594.511V62.4395H587.905V13.242H554.072C552.36 22.0625 551.055 28.2924 549.097 36.8708C546.898 45.528 545.184 53.861 541.923 62.5215H537.684V86.8765H551.869V74.9017C561.41 74.9017 570.786 74.9017 580.405 74.9017ZM572.252 62.4395H557.088C558.881 56.2891 560.592 49.4931 562.224 42.9399C563.691 37.0308 564.426 31.4492 565.893 25.6222H572.252V62.4395Z" fill="#F1F1F1"/>
<path fill-rule="evenodd" clip-rule="evenodd" d="M168.737 107.047L163.465 96.0735H154.809V119.169H161.794V111.513L161.58 108.11L161.494 106.494L168.694 120.657L176.022 106.579L175.851 108.152L175.765 111.428L175.679 119.169H182.837V96.0735H174.436L174.223 96.2854L168.737 107.047ZM210.307 112.874L203.064 111.47C202.25 113.044 200.622 113.895 198.564 113.895C195.693 113.895 193.808 112.193 193.55 109.343H210.864V108.79C210.864 100.497 206.107 95.6907 198.221 95.6907C190.721 95.6907 185.751 100.624 185.751 107.812C185.751 114.83 190.764 119.636 198.479 119.636C204.093 119.636 208.378 117.127 210.307 112.874ZM203.278 105.856H193.464C193.679 103.006 195.565 101.22 198.264 101.22C201.05 101.22 202.893 102.921 203.278 105.856ZM237.306 113.086H234.22C234.22 107.429 234.22 101.901 234.22 96.3281C229.249 96.3281 224.321 96.3281 219.435 96.3281C218.664 102.751 216.35 109.343 215.107 113.086H213.007V124.188H220.121V119.041H230.235V124.188L237.306 124.145V113.086ZM227.107 113.044H222.263C223.335 111.002 224.492 105.686 225.092 101.901H227.107V113.044ZM255.648 96.0735L249.905 105.601L249.177 106.877L248.234 109.089L248.449 108.195L248.62 105.26V96.0735H241.248V119.169H248.62L255.477 108.195L256.591 105.984L256.377 107.089L256.034 110.747V119.169H263.405V96.0735H255.648ZM275.662 113.129V96.1154H268.205V119.169H285.518V124.443H292.375V113.086H289.333V96.1581H281.79V113.129H275.662ZM309.743 96.0735L304.001 105.601L303.272 106.877L302.33 109.089L302.544 108.195L302.715 105.26V96.0735H295.343V119.169H302.715L309.572 108.195L310.686 105.984L310.472 107.089L310.129 110.747V119.169H317.5V96.0735H309.743ZM329.042 104.58V96.1581H321.5V119.253H329.085V110.662H335.214V119.253H342.756V96.2008H335.128V104.58H329.042ZM368.442 115.724L363.857 110.79C362.828 112.448 361.2 113.384 359.357 113.384C356.4 113.384 354.086 111.087 354.086 107.685C354.086 104.282 356.4 101.942 359.357 101.942C360.857 101.942 362.357 102.623 363.514 103.942L367.971 99.0503C365.314 96.6263 362.271 95.6907 358.886 95.6907C351.472 95.6907 346.5 100.581 346.5 107.685C346.5 114.787 351.472 119.636 358.886 119.636C362.743 119.636 365.785 118.403 368.442 115.724ZM372 96.2435V119.083H379.5V108.45L385.628 119.083H394.627L386.013 106.791L393.728 96.2435H385.114L379.5 105.771V96.2435H372ZM414.243 96.0735L408.5 105.601L407.772 106.877L406.83 109.089L407.044 108.195L407.215 105.26V96.0735H399.844V119.169H407.215L414.072 108.195L415.186 105.984L414.972 107.089L414.629 110.747V119.169H422V96.0735H414.243ZM441.9 96.0734L436.157 105.601L435.429 106.876L434.486 109.088L434.7 108.195L434.872 105.26V96.0734H427.5V119.169H434.872L441.729 108.195L442.843 105.984L442.628 107.089L442.286 110.747V119.169H449.657V96.0734H441.9ZM434.014 86.3751H431.272C431.572 90.7138 433.715 92.7557 437.871 92.7557C442.071 92.7557 444.086 90.7565 444.428 86.3751H441.686C441.6 88.3317 440.357 89.2681 437.871 89.2681C435.429 89.2681 434.186 88.3744 434.014 86.3751Z" fill="#F1F1F1"/>
<path fill-rule="evenodd" clip-rule="evenodd" d="M474.147 113.13V96.1164H466.69V119.17H484.003V124.444H490.86V113.087H487.818V96.1592H480.274V113.13H474.147ZM517.774 112.875L510.531 111.471C509.717 113.045 508.088 113.896 506.031 113.896C503.16 113.896 501.274 112.195 501.017 109.344H518.331V108.791C518.331 100.498 513.573 95.6918 505.689 95.6918C498.189 95.6918 493.217 100.625 493.217 107.813C493.217 114.831 498.232 119.637 505.945 119.637C511.56 119.637 515.845 117.128 517.774 112.875ZM510.745 105.857H500.931C501.146 103.007 503.031 101.221 505.731 101.221C508.517 101.221 510.36 102.922 510.745 105.857ZM530.33 104.581V96.1592H522.787V119.254H530.374V110.663H536.501V119.254H544.044V96.2019H536.416V104.581H530.33ZM566.5 102.156V96.2019H547.301V102.156H553.044L553.215 102.284V119.127H560.801V102.156H566.5ZM582.571 101.519C585.229 101.519 587.415 103.9 587.415 107.643C587.415 111.386 585.229 113.853 582.571 113.853C579.958 113.853 577.729 111.386 577.729 107.643C577.729 103.9 579.958 101.519 582.571 101.519ZM577.9 99.3495V96.2446H570.486V127.549H577.686V115.895C578.543 118.063 581.029 119.51 584.285 119.51C587.243 119.51 590.028 118.276 592.128 116.022C594.1 113.853 595 111.131 595 107.643C595 104.283 593.885 101.391 591.872 99.264C589.771 97.0528 587.028 95.8618 584.029 95.8618C580.944 95.8618 578.758 97.1374 577.9 99.3495Z" fill="#F1F1F1"/>
</svg>
