<svg width="72" height="72" viewBox="0 0 72 72" fill="none" xmlns="http://www.w3.org/2000/svg">
<path fill-rule="evenodd" clip-rule="evenodd" d="M28 24.8C28 23.2536 29.221 22 30.7271 22H39.0031C41.875 22 44.2076 23.1866 45.7818 25.0848C47.3061 26.9227 48 29.2751 48 31.52C48 33.7649 47.3061 36.1173 45.7818 37.9553C44.2076 39.8534 41.875 41.04 39.0031 41.04H33.4543V47.2C33.4543 48.7464 32.2333 50 30.7271 50C29.221 50 28 48.7464 28 47.2V24.8ZM33.4543 35.44H39.0031C40.3111 35.44 41.1133 34.9466 41.629 34.3248C42.1946 33.6427 42.5457 32.6351 42.5457 31.52C42.5457 30.4049 42.1946 29.3973 41.629 28.7152C41.1133 28.0934 40.3111 27.6 39.0031 27.6H33.4543V35.44Z" fill="#F8F8F8"/>
<path fill-rule="evenodd" clip-rule="evenodd" d="M36 5.53846C19.1766 5.53846 5.53846 19.1766 5.53846 36C5.53846 52.8234 19.1766 66.4615 36 66.4615C52.8234 66.4615 66.4615 52.8234 66.4615 36C66.4615 19.1766 52.8234 5.53846 36 5.53846ZM0 36C0 16.1177 16.1177 0 36 0C55.8823 0 72 16.1177 72 36C72 55.8823 55.8823 72 36 72C16.1177 72 0 55.8823 0 36Z" fill="#F8F8F8"/>
</svg>
