<svg width="72" height="72" viewBox="0 0 72 72" fill="none" xmlns="http://www.w3.org/2000/svg">
<path fill-rule="evenodd" clip-rule="evenodd" d="M36 5.53846C19.1766 5.53846 5.53846 19.1766 5.53846 36C5.53846 52.8234 19.1766 66.4615 36 66.4615C52.8234 66.4615 66.4615 52.8234 66.4615 36C66.4615 19.1766 52.8234 5.53846 36 5.53846ZM0 36C0 16.1177 16.1177 0 36 0C55.8823 0 72 16.1177 72 36C72 55.8823 55.8823 72 36 72C16.1177 72 0 55.8823 0 36Z" fill="#F8F8F8"/>
<path fill-rule="evenodd" clip-rule="evenodd" d="M24.1538 24.1538V47.8462H34.9231V24.1538H24.1538ZM23.9385 22C23.4243 22 22.9313 22.2042 22.5678 22.5678C22.2042 22.9313 22 23.4243 22 23.9385V48.0615C22 48.5757 22.2042 49.0687 22.5678 49.4322C22.9313 49.7958 23.4244 50 23.9385 50H48.0615C48.5756 50 49.0687 49.7958 49.4322 49.4322C49.7958 49.0687 50 48.5756 50 48.0615V23.9385C50 23.4244 49.7958 22.9313 49.4322 22.5678C49.0687 22.2042 48.5757 22 48.0615 22H23.9385ZM37.0769 24.1538V47.8462H47.8462V24.1538H37.0769Z" fill="#F8F8F8"/>
<path fill-rule="evenodd" clip-rule="evenodd" d="M29.5385 32.0513C29.8774 32.0513 30.1966 32.2109 30.4 32.4821L32.5538 35.3538C32.9107 35.8297 32.8143 36.5047 32.3385 36.8615C31.8626 37.2184 31.1876 37.122 30.8308 36.6462L29.5385 34.9231L28.2462 36.6462C27.8893 37.122 27.2143 37.2184 26.7385 36.8615C26.2626 36.5047 26.1662 35.8297 26.5231 35.3538L28.6769 32.4821C28.8803 32.2109 29.1995 32.0513 29.5385 32.0513ZM39.6615 35.1385C40.1374 34.7816 40.8124 34.878 41.1692 35.3538L42.4615 37.0769L43.7538 35.3538C44.1107 34.878 44.7857 34.7816 45.2615 35.1385C45.7374 35.4953 45.8338 36.1703 45.4769 36.6462L43.3231 39.5179C43.1197 39.7891 42.8005 39.9487 42.4615 39.9487C42.1226 39.9487 41.8034 39.7891 41.6 39.5179L39.4462 36.6462C39.0893 36.1703 39.1857 35.4953 39.6615 35.1385Z" fill="#F8F8F8"/>
</svg>
