<svg width="72" height="72" viewBox="0 0 72 72" fill="none" xmlns="http://www.w3.org/2000/svg">
<path fill-rule="evenodd" clip-rule="evenodd" d="M36 5.53846C19.1766 5.53846 5.53846 19.1766 5.53846 36C5.53846 52.8234 19.1766 66.4615 36 66.4615C52.8234 66.4615 66.4615 52.8234 66.4615 36C66.4615 19.1766 52.8234 5.53846 36 5.53846ZM0 36C0 16.1177 16.1177 0 36 0C55.8823 0 72 16.1177 72 36C72 55.8823 55.8823 72 36 72C16.1177 72 0 55.8823 0 36Z" fill="#F8F8F8"/>
<path d="M43.8 41.6C42.9693 41.6 42.1573 41.8463 41.4666 42.3078C40.7759 42.7693 40.2376 43.4253 39.9197 44.1927C39.6018 44.9602 39.5186 45.8047 39.6807 46.6194C39.8428 47.4341 40.2428 48.1825 40.8301 48.7698C41.4175 49.3572 42.1659 49.7572 42.9806 49.9193C43.7953 50.0814 44.6398 49.9982 45.4073 49.6803C46.1747 49.3624 46.8307 48.8241 47.2922 48.1334C47.7537 47.4427 48 46.6307 48 45.8C48 44.6861 47.5575 43.6178 46.7698 42.8301C45.9822 42.0425 44.9139 41.6 43.8 41.6ZM43.8 47.2C43.5231 47.2 43.2524 47.1179 43.0222 46.9641C42.792 46.8102 42.6125 46.5916 42.5066 46.3358C42.4006 46.0799 42.3729 45.7984 42.4269 45.5269C42.4809 45.2553 42.6142 45.0058 42.81 44.81C43.0058 44.6143 43.2553 44.4809 43.5269 44.4269C43.7984 44.3729 44.0799 44.4006 44.3357 44.5066C44.5916 44.6125 44.8102 44.792 44.964 45.0222C45.1179 45.2524 45.2 45.5231 45.2 45.8C45.2 46.1713 45.0525 46.5274 44.7899 46.7899C44.5274 47.0525 44.1713 47.2 43.8 47.2ZM29.8 41.6C28.9693 41.6 28.1573 41.8463 27.4666 42.3078C26.7759 42.7693 26.2376 43.4253 25.9197 44.1927C25.6018 44.9602 25.5186 45.8047 25.6807 46.6194C25.8428 47.4341 26.2428 48.1825 26.8301 48.7698C27.4175 49.3572 28.1659 49.7572 28.9806 49.9193C29.7953 50.0814 30.6398 49.9982 31.4073 49.6803C32.1747 49.3624 32.8307 48.8241 33.2922 48.1334C33.7537 47.4427 34 46.6307 34 45.8C34 44.6861 33.5575 43.6178 32.7698 42.8301C31.9822 42.0425 30.9139 41.6 29.8 41.6ZM29.8 47.2C29.5231 47.2 29.2524 47.1179 29.0222 46.9641C28.792 46.8102 28.6125 46.5916 28.5066 46.3358C28.4006 46.0799 28.3729 45.7984 28.4269 45.5269C28.4809 45.2553 28.6143 45.0058 28.81 44.81C29.0058 44.6143 29.2553 44.4809 29.5269 44.4269C29.7984 44.3729 30.0799 44.4006 30.3358 44.5066C30.5916 44.6125 30.8102 44.792 30.9641 45.0222C31.1179 45.2524 31.2 45.5231 31.2 45.8C31.2 46.1713 31.0525 46.5274 30.7899 46.7899C30.5274 47.0525 30.1713 47.2 29.8 47.2ZM48 31.1C47.9963 28.6877 47.0364 26.3752 45.3306 24.6694C43.6248 22.9636 41.3123 22.0037 38.9 22H38.2C37.8287 22 37.4726 22.1475 37.21 22.4101C36.9475 22.6726 36.8 23.0287 36.8 23.4V30.4H27.728L25.978 25.71C25.8779 25.442 25.6981 25.2112 25.4628 25.0485C25.2275 24.8858 24.948 24.7991 24.662 24.8H21.4C21.0287 24.8 20.6726 24.9475 20.4101 25.2101C20.1475 25.4726 20 25.8287 20 26.2C20 26.5713 20.1475 26.9274 20.4101 27.1899C20.6726 27.4525 21.0287 27.6 21.4 27.6H23.696L25.446 32.318L26.16 34.236V34.362C26.8122 36.0939 27.9816 37.5832 29.5094 38.6276C31.0372 39.6721 32.8494 40.221 34.7 40.2H38.9C40.0955 40.2018 41.2797 39.9677 42.3846 39.5111C43.4895 39.0544 44.4934 38.3842 45.3388 37.5388C46.1842 36.6934 46.8544 35.6895 47.311 34.5846C47.7677 33.4797 48.0018 32.2955 48 31.1ZM43.352 35.552C42.7689 36.139 42.0752 36.6046 41.3111 36.9218C40.5469 37.2391 39.7274 37.4016 38.9 37.4H34.7C33.4486 37.4038 32.2247 37.0324 31.1865 36.3336C30.1484 35.6348 29.3435 34.6408 28.876 33.48C28.8699 33.4523 28.8699 33.4237 28.876 33.396L28.764 33.2H44.836C44.5307 34.0886 44.0226 34.8939 43.352 35.552ZM39.6 30.4V24.8C41.0341 24.9496 42.3732 25.5876 43.3928 26.6072C44.4124 27.6268 45.0504 28.9659 45.2 30.4H39.6Z" fill="#F8F8F8"/>
</svg>
