<svg width="72" height="72" viewBox="0 0 72 72" fill="none" xmlns="http://www.w3.org/2000/svg">
<path fill-rule="evenodd" clip-rule="evenodd" d="M36 5.53846C19.1766 5.53846 5.53846 19.1766 5.53846 36C5.53846 52.8234 19.1766 66.4615 36 66.4615C52.8234 66.4615 66.4615 52.8234 66.4615 36C66.4615 19.1766 52.8234 5.53846 36 5.53846ZM0 36C0 16.1177 16.1177 0 36 0C55.8823 0 72 16.1177 72 36C72 55.8823 55.8823 72 36 72C16.1177 72 0 55.8823 0 36Z" fill="#F8F8F8"/>
<path fill-rule="evenodd" clip-rule="evenodd" d="M35.4431 22.1237C35.0306 22.1237 34.6349 22.2883 34.3431 22.5815C34.0514 22.8746 33.8875 23.2722 33.8875 23.6867C33.8875 24.1013 34.0514 24.4989 34.3431 24.792C34.6349 25.0851 35.0306 25.2498 35.4431 25.2498C35.8557 25.2498 36.2514 25.0851 36.5432 24.792C36.8349 24.4989 36.9988 24.1013 36.9988 23.6867C36.9988 23.2722 36.8349 22.8746 36.5432 22.5815C36.2514 22.2883 35.8557 22.1237 35.4431 22.1237ZM30.7761 23.6867C30.7765 22.8272 31.0121 21.9842 31.4571 21.2501C31.9021 20.516 32.5394 19.9188 33.2993 19.524C34.0592 19.1292 34.9126 18.9518 35.766 19.0112C36.6195 19.0707 37.4403 19.3647 38.1387 19.8612C38.8371 20.3577 39.3862 21.0374 39.7261 21.8263C40.066 22.6151 40.1835 23.4826 40.0659 24.334C39.9482 25.1854 39.5999 25.988 39.059 26.6539C38.5181 27.3199 37.8054 27.8237 36.9988 28.1102V30.3766L40.3622 31.502H43.2216C43.6342 31.502 44.0299 31.6667 44.3216 31.9599C44.6134 32.253 44.7773 32.6506 44.7773 33.0651C44.7773 33.4797 44.6134 33.8772 44.3216 34.1704C44.0299 34.4635 43.6342 34.6282 43.2216 34.6282H40.1102C39.9431 34.6283 39.7771 34.6014 39.6186 34.5485L36.9988 33.67V36.1912C36.9988 36.6058 37.1627 37.0034 37.4545 37.2965C37.7462 37.5896 38.1419 37.7543 38.5545 37.7543H41.6659C42.3904 37.7543 43.105 37.9238 43.7531 38.2493C44.4011 38.5749 44.9648 39.0476 45.3995 39.63L48.6665 44.0065H49.4443C49.8569 44.0065 50.2526 44.1712 50.5444 44.4644C50.8361 44.7575 51 45.1551 51 45.5696C51 45.9842 50.8361 46.3817 50.5444 46.6749C50.2526 46.968 49.8569 47.1327 49.4443 47.1327H47.8886C47.6471 47.1327 47.4089 47.0762 47.1929 46.9677C46.9769 46.8591 46.789 46.7016 46.6441 46.5074L42.9104 41.5056C42.7655 41.3115 42.5776 41.154 42.3616 41.0454C42.1456 40.9369 41.9074 40.8804 41.6659 40.8804H38.5545C37.3167 40.8804 36.1297 40.3864 35.2544 39.507C34.3792 38.6276 33.8875 37.4349 33.8875 36.1912V28.1086C32.9774 27.7854 32.1895 27.1865 31.6323 26.3946C31.075 25.6026 30.7759 24.6566 30.7761 23.6867ZM31.1992 33.3308C30.0815 33.65 29.0604 34.2437 28.228 35.0585C27.3957 35.8732 26.7783 36.8833 26.4315 37.9976C26.0847 39.1119 26.0195 40.2955 26.2417 41.4415C26.4638 42.5875 26.9664 43.6599 27.7041 44.562C28.4419 45.4641 29.3914 46.1675 30.4673 46.6087C31.5431 47.05 32.7114 47.2152 33.8666 47.0896C35.0219 46.9639 36.1279 46.5513 37.0848 45.8889C38.0417 45.2265 38.8195 44.3352 39.3479 43.2954L42.117 44.7177C41.3534 46.2197 40.2297 47.507 38.8472 48.4636C37.4648 49.4201 35.867 50.0159 34.1981 50.197C32.5293 50.3782 30.8418 50.1391 29.2878 49.5013C27.7339 48.8635 26.3625 47.847 25.2972 46.5436C24.2319 45.2402 23.5064 43.6908 23.1859 42.0353C22.8655 40.3798 22.9603 38.6701 23.4618 37.0606C23.9633 35.4511 24.8557 33.9923 26.0584 32.8159C27.2612 31.6394 28.7366 30.7824 30.3514 30.3219L31.1992 33.3308Z" fill="#F8F8F8"/>
</svg>
